<svg class="dn" height="0" version="1.1" width="0" xmlns="http://www.w3.org/2000/svg">
  <defs>
  <g id="ico-fav"><g><path fill="#fff" d="M11.841 4.518c.522-1.297 2.06-2.275 3.579-2.275 1.995 0 3.5 1.447 3.5 3.366 0 2.315-2.326 4.464-5.845 7.716-.714.66-1.5 1.385-2.322 2.166a230.153 230.153 0 0 0-2.322-2.166c-3.52-3.252-5.845-5.4-5.845-7.716 0-1.919 1.505-3.366 3.5-3.366 1.519 0 3.057.978 3.579 2.275l1.088 2.704zM6.086 0C4.497 0 3.025.572 1.941 1.61.852 2.653.253 4.073.253 5.61c0 1.554.619 3.049 1.948 4.705 1.138 1.417 2.748 2.905 4.613 4.628.941.87 2.008 1.855 3.111 2.924l.828.8.828-.8a181.019 181.019 0 0 1 3.11-2.924c1.865-1.723 3.476-3.21 4.614-4.628 1.329-1.656 1.948-3.151 1.948-4.705 0-1.536-.6-2.956-1.688-3.999C18.481.572 17.01 0 15.42 0a6.518 6.518 0 0 0-3.483 1.038c-.44.283-.839.617-1.184.986a6.263 6.263 0 0 0-1.186-.986A6.518 6.518 0 0 0 6.087 0z"/></g></g>
  <g id="ico-ship"><g><path fill="#fff" d="M23.04 4.755c.106 0 1.895.296 3.001 1.233 1.111.941 1.618 2.592 1.618 2.701v.397c0 .217-.167.394-.371.394h-4.742c-.205 0-.371-.177-.371-.394l.027-1.618.008-1.374.006-1.12c0-.219.825-.219.825-.219zM21.313 16.3a4.383 4.383 0 0 1-.007-.239c0-2.236 1.722-4.055 3.838-4.055s3.837 1.82 3.837 4.055c0 .08-.002.16-.007.239h.534c.373 0 1.746-.321 1.746-.716V9.621c0-.091-2.454-7.694-10.222-7.088-.369 0-.828 0-.828.398l-.026 4.537v8.116c0 .395.304.716.677.716h.458z"/></g><g><path fill="#fff" d="M3.57 16.3H.93c-.373 0-.677-.321-.677-.716V.716C.253.32.557 0 .93 0h16.134c.374 0 .678.321.678.716v14.868c0 .395-.304.716-.678.716h-5.832c.004-.079.006-.159.006-.239 0-2.236-1.721-4.055-3.837-4.055s-3.837 1.82-3.837 4.055c0 .08.002.16.006.239z"/></g></g>
  <g id='ico-cart'>
<g>
<path fill="#fff" d="M9.546 4.663c.23-1.374 1.46-2.424 2.933-2.424 1.474 0 2.7 1.05 2.93 2.424zM21.87 22.38c.902 0 1.631-.713 1.631-1.587L20.624 6.247c0-.874-.728-1.584-1.63-1.584h-1.266C17.485 2.048 15.228 0 12.479 0 9.73 0 7.473 2.048 7.23 4.663H5.005c-.902 0-1.63.71-1.63 1.584L.5 20.793c0 .874.727 1.587 1.629 1.587z"/>
</g>
</g>
  </defs>
</svg>