<?xml version="1.0" encoding="iso-8859-1"?>
<!-- Generator: Adobe Illustrator 19.0.0, SVG Export Plug-In . SVG Version: 6.00 Build 0)  -->
<svg fill="#ffffff" xmlns="http://www.w3.org/2000/svg" width="23" height="16" viewBox="0 0 23 16"><g><g><path d="M5.47 10.43l-.161-.76-1.657-7.744H0V0h5.208l.164.763 1.654 7.744h11.466l1.937-6.581H9.394V0H23l-.365 1.237-2.703 9.192zm1.052 3.867c0-.795.647-1.444 1.442-1.444a1.445 1.445 0 0 1 0 2.888 1.444 1.444 0 0 1-1.442-1.444zm9.623 0a1.444 1.444 0 1 1 1.445 1.444c-.8 0-1.445-.645-1.445-1.444z"/></g></g></svg>
