<svg xmlns="http://www.w3.org/2000/svg" width="19" height="19" viewBox="0 0 19 19"><g><g><path fill="#fff" d="M9.64.202a4.434 4.434 0 1 1-.001 8.868 4.434 4.434 0 0 1 0-8.868zm0 2.209a2.227 2.227 0 0 0-2.226 2.225c0 1.227.998 2.225 2.225 2.225a2.227 2.227 0 0 0 2.225-2.225A2.227 2.227 0 0 0 9.639 2.41"/></g><g><path fill="#fff" d="M7.852 10.166h2.56c4.25 0 7.694 1.481 7.694 6v2.036H.158v-2.036c0-4.519 3.445-6 7.694-6zm0 2.209c-1.894 0-3.392.333-4.33.964-.58.388-1.24 1.04-1.284 2.654h13.788c-.044-1.613-.705-2.266-1.283-2.654-.939-.63-2.437-.964-4.33-.964h-2.56"/></g></g></svg>