<svg xmlns="http://www.w3.org/2000/svg" width="84" height="58" viewBox="0 0 84 58"><g><g><g><path fill="#fff" d="M51.51 54.149c0 1.789-.052 2.366.576 2.366v.423H46.67a8.634 8.634 0 0 1-.263-2.366c0-1.789-.366-2.366-2.84-2.366h-1.63v4.732h-5.38V43.314h6.7v3.154h-1.422v2.68h2.098c1.634 0 2.525-.314 2.525-1.262s-.891-1.423-2.154-1.423h-1.031V43.31h.948c5.47 0 7.258 1.263 7.258 3.891a3.206 3.206 0 0 1-2.737 3.315c1.758.515 2.789.871 2.789 3.608zM25.652 42.974c5.82 0 8.552 3.474 8.577 7.139 0 4.48-3.469 7.005-8.046 7.216v-3.366c1.892-.283 2.68-1.83 2.68-3.891 0-1.84-.845-3.732-3.263-3.732-2.417 0-3.154 1.994-3.154 3.732 0 1.737.629 3.891 3.206 3.891.15 0 .356-.051.515-.051v3.366h-.515c-5.103 0-8.52-2.619-8.52-7.258 0-4.258 3.417-7.046 8.52-7.046zm50.841 10.788h7.31v3.155H71.127V43.345h5.376zm-16.449-.01h8.248v3.155H54.669V43.334h13.304v3.155H60.03v1.949h6.742v3.154H60.04zM5.962 46.865c0 2.052 9.382.789 9.361 5.861 0 3.134-3.16 4.68-7.629 4.68-4.273 0-7.114-2.102-7.217-4.577h5.104c.114.467.446.851.891 1.031a3.609 3.609 0 0 0 1.547.315c1.32 0 2.211-.371 2.211-1 0-2.052-9.36-.634-9.36-5.84 0-2.892 2.922-4.367 7.046-4.367 4.52 0 6.629 1.949 6.995 4.315H9.807a1.325 1.325 0 0 0-.788-.949 2.768 2.768 0 0 0-1.366-.262c-1.17 0-1.686.314-1.686.788zM75.04 10.272c.16-.283-.206-1.474-1.154-1.314-.212.051-.686.422-.475.788.371.51 1.032.72 1.63.516zm5.557 3.196c.16.206.16.356.052.48-.16.206-.686.788-.949 1.154-.3.422-.645.81-1.03 1.155a3.66 3.66 0 0 1-2.212.629c-2.84-.109-3.954-.057-4.47-.16-4.102-.109-7 1.943-7.102 1.891-.32-.123 0-1.051-.16-1.154-.16-.103-3.861 2.062-4.892 2.577-.09.029-.178.063-.263.103-.052 0-.052-.051-.052-.103 0-.263.263-.943.212-1.103-.68.313-1.33.682-1.949 1.103-.474.273-.948.578-1.314.789l.629-.789c.34-.441.605-.936.783-1.464-.336.036-.67.09-1 .16-.417.057-.788.057-.84.16a4.975 4.975 0 0 1-.737 1.211c-2.526 3.263-8.68 6.892-12.52 10.207-2 1.68-3.367 3.309-3.367 4.732 0 1.21 1.737 1.737 2.103 2.314.398.689.614 1.468.63 2.263h-8.944c-1.526-1.052-2.155-3.526-2.155-3.68 0-.155-1 .16-1-.104 0-1.474 2.052-4.314 2.103-4.788.057-.207-.995.211-.892-.103.065-.219.154-.43.263-.63 1.346-2.809 3.505-4.86 3.454-4.963-.052-.103-.526.051-1 0a6.484 6.484 0 0 0-.949-.16c-.103.051-2.84 4.314-2.84 4.314a24.608 24.608 0 0 1-3.526.79h-.422s-.052 0 0-.052c4.438-5.104 3.912-5.784 4.123-5.944.212-.16 1.516-.263 3.578-2.737.056-.052-.366-.263-.63-.366a6.966 6.966 0 0 1-.788-.423c-2.314 2.63-2.943 2.052-3.314 2.315-.371.263.211.845-2.263 4.051-.789 1.052-1.897 1.892-2.474 3.155a4.773 4.773 0 0 0-.366 1.84c0 3.366 2.469 4.201 2.994 4.784.526.582.686 2.314.738 2.737h-8.49c-1.995-1.948-4.206-5.995-5.52-8.995-.052-.16-.527.629-.738.577-.211-.051-.474-.376-.84-.891a36.892 36.892 0 0 1-3.52-7.918c-.083-.211-.769.629-1.032.577-.155 0-.366-.794-.629-1.685a3.165 3.165 0 0 1-.211-1.212c0-.252.051-.412 0-.515-.14-.263-1.634.211-1.686-.103-.422-3.031 1.155-6.5 3.361-9.52 2.578-3.527 5.985-6.47 8.047-7.47C18.158 1.767 21.684.927 25.1.927c10.635 0 21.527 5.984 22.681 5.67 1.578-.212 2.63-.897 3.578-1 2.577-.263 9.727-.263 15.041.051.103 0 .16 1.526 1.314 1.686.104.051.263-.052.104-.211a1.289 1.289 0 0 1-.191-1.65c.417-.557 1.732-.84 2.68.474.59.064 1.172.186 1.737.366 2.186.861 3.418 1.578 3.732 1.892.475.474.526 1.474.84 1.686 1.52.966 2.872 2.174 4 3.577zM56.581 36.716c.871.417 1.717 2.366 1.877 2.995h-9.836c-.582-.578-1.37-2.686-1.474-2.892-.103-.206-1 0-1.314-.103-.222-.109-.423-1.737-.737-2-.14-.103-.98.108-1.031-.103a6.949 6.949 0 0 1 .685-4.526c3.258-2.526 7.784-5.366 10.624-8.047a8.444 8.444 0 0 1-.423 1.892c-.16.474-2.788 4.315-2.788 6.943 0 4.104 3.84 5.578 4.417 5.84zM11.85 33.664c0 1.686 1.582 2.84 2.16 3.557.37.526.474 1.68.474 2.366H7.199c-1.582-1.108-2.737-4.423-2.737-4.577 0-.155-1.031.16-1.031-.104 0-1.453 1.052-5.711 1.155-6.185.16-.892 2.634-3.366 3.526-4.206a.186.186 0 0 1 .051.103 26.537 26.537 0 0 0 2.577 5.67c.404.733.88 1.424 1.423 2.062a5.191 5.191 0 0 0-.314 1.314z"/></g></g></g></svg>